<?xml version="1.0" encoding="utf-8"?>
<!-- Generator: Adobe Illustrator 16.0.3, SVG Export Plug-In . SVG Version: 6.00 Build 0)  -->
<!DOCTYPE svg PUBLIC "-//W3C//DTD SVG 1.1//EN" "http://www.w3.org/Graphics/SVG/1.1/DTD/svg11.dtd">
<svg version="1.1" id="Layer_1" xmlns="http://www.w3.org/2000/svg" xmlns:xlink="http://www.w3.org/1999/xlink" x="0px" y="0px"
	 width="804.215px" height="281.255px" viewBox="0 0 804.215 281.255" enable-background="new 0 0 804.215 281.255"
	 xml:space="preserve">
<polygon fill="#FFFFFF" points="55.116,161.171 55.116,35.222 31.124,35.222 31.124,191.163 "/>
<polygon fill="#FFFFFF" points="55.116,161.171 55.116,35.222 31.124,35.222 31.124,191.163 "/>
<rect x="498.948" y="66.706" fill="#FFFFFF" width="23.98" height="23.992"/>
<rect x="498.948" y="66.706" fill="#FFFFFF" width="23.98" height="23.992"/>
<polygon fill="#FFFFFF" points="522.928,98.203 498.948,98.203 498.948,162.674 522.928,192.667 "/>
<polygon fill="#FFFFFF" points="522.928,98.203 498.948,98.203 498.948,162.674 522.928,192.667 "/>
<rect x="62.608" y="82.455" fill="#FFFFFF" width="46.48" height="23.992"/>
<rect x="62.608" y="82.455" fill="#FFFFFF" width="46.48" height="23.992"/>
<path fill="#FFFFFF" d="M359.894,35.222l-97.232,118.457h132.583V35.222H359.894z M371.241,129.687h-57.843l57.843-70.473V129.687z"
	/>
<path fill="#FFFFFF" d="M359.894,35.222l-97.232,118.457h132.583V35.222H359.894z M371.241,129.687h-57.843l57.843-70.473V129.687z"
	/>
<polygon fill="#FFFFFF" points="737.75,35.222 640.533,153.679 671.569,153.679 749.098,59.214 749.098,153.679 773.102,153.679 
	773.102,35.222 "/>
<polygon fill="#FFFFFF" points="737.75,35.222 640.533,153.679 671.569,153.679 749.098,59.214 749.098,153.679 773.102,153.679 
	773.102,35.222 "/>
<path fill="#FFFFFF" d="M595.555,35.222v118.457h35.326L728.1,35.222H595.555z M619.534,129.687V59.214h57.844L619.534,129.687z"/>
<path fill="#FFFFFF" d="M595.555,35.222v118.457h35.326L728.1,35.222H595.555z M619.534,129.687V59.214h57.844L619.534,129.687z"/>
<polygon fill="#FFFFFF" points="491.616,153.679 402.739,153.679 402.739,129.687 460.583,129.687 402.739,59.214 402.739,35.223 
	491.616,35.223 491.616,59.214 433.774,59.214 491.616,129.687 "/>
<polygon fill="#FFFFFF" points="491.616,153.679 402.739,153.679 402.739,129.687 460.583,129.687 402.739,59.214 402.739,35.223 
	491.616,35.223 491.616,59.214 433.774,59.214 491.616,129.687 "/>
<polygon fill="#FFFFFF" points="498.948,35.222 498.948,59.214 531.399,59.214 531.399,153.679 555.377,153.679 555.377,59.214 
	587.827,59.214 587.827,35.222 "/>
<polygon fill="#FFFFFF" points="498.948,35.222 498.948,59.214 531.399,59.214 531.399,153.679 555.377,153.679 555.377,59.214 
	587.827,59.214 587.827,35.222 "/>
<polygon fill="#FFFFFF" points="120.421,129.687 62.608,129.687 62.608,153.679 131.77,153.679 209.298,59.214 209.298,35.222 
	197.959,35.222 "/>
<polygon fill="#FFFFFF" points="120.421,129.687 62.608,129.687 62.608,153.679 131.77,153.679 209.298,59.214 209.298,35.222 
	197.959,35.222 "/>
<polygon fill="#FFFFFF" points="184.501,99.478 168.983,118.38 197.959,153.679 209.298,153.679 209.298,129.687 "/>
<polygon fill="#FFFFFF" points="184.501,99.478 168.983,118.38 197.959,153.679 209.298,153.679 209.298,129.687 "/>
<polygon fill="#FFFFFF" points="145.219,89.422 160.736,70.52 131.77,35.223 62.608,35.223 62.608,59.214 120.421,59.214 "/>
<polygon fill="#FFFFFF" points="145.219,89.422 160.736,70.52 131.77,35.223 62.608,35.223 62.608,59.214 120.421,59.214 "/>
<rect x="563.846" y="66.706" fill="#FFFFFF" width="23.98" height="23.992"/>
<rect x="563.846" y="66.706" fill="#FFFFFF" width="23.98" height="23.992"/>
<polygon fill="#FFFFFF" points="587.827,98.203 563.846,98.203 563.846,192.667 587.827,162.674 "/>
<polygon fill="#FFFFFF" points="587.827,98.203 563.846,98.203 563.846,192.667 587.827,162.674 "/>
<path fill="#FFFFFF" d="M216.803,35.222v191.171l23.992,29.993V153.679h11.349l77.53-94.465V35.222H216.803z M240.795,129.687
	V59.214h57.844L240.795,129.687z"/>
<path fill="#FFFFFF" d="M216.803,35.222v191.171l23.992,29.993V153.679h11.349l77.53-94.465V35.222H216.803z M240.795,129.687
	V59.214h57.844L240.795,129.687z"/>
<polygon fill="#FFFFFF" points="69.398,170.915 46.232,199.874 199.549,199.874 199.547,170.915 "/>
<polygon fill="#FFFFFF" points="69.398,170.915 46.232,199.874 199.549,199.874 199.547,170.915 "/>
<polygon fill="#FFFFFF" points="258.031,170.915 258.031,199.874 506.6,199.874 483.35,170.915 "/>
<polygon fill="#FFFFFF" points="258.031,170.915 258.031,199.874 506.6,199.874 483.35,170.915 "/>
<polygon fill="#FFFFFF" points="602.249,170.919 578.694,199.874 770.096,199.874 770.096,170.919 "/>
<polygon fill="#FFFFFF" points="602.249,170.919 578.694,199.874 770.096,199.874 770.096,170.919 "/>
<g>
	
		<rect x="2.108" y="2.108" fill="none" stroke="#FFFFFF" stroke-width="4.2156" stroke-miterlimit="10" width="800" height="277.04"/>
</g>
</svg>
