<?xml version="1.0" encoding="utf-8"?>
<!-- Generator: Adobe Illustrator 16.0.3, SVG Export Plug-In . SVG Version: 6.00 Build 0)  -->
<!DOCTYPE svg PUBLIC "-//W3C//DTD SVG 1.1//EN" "http://www.w3.org/Graphics/SVG/1.1/DTD/svg11.dtd">
<svg version="1.1" id="Layer_1" xmlns="http://www.w3.org/2000/svg" xmlns:xlink="http://www.w3.org/1999/xlink" x="0px" y="0px"
	 width="500px" height="500px" viewBox="0 0 500 500" enable-background="new 0 0 500 500" xml:space="preserve">
<path fill="#FFFFFF" d="M436.05,499.996h63.947v-63.945L336.687,272.742l-63.944,63.945L436.05,499.996z"/>
<path fill="#FFFFFF" d="M500,109.43l-90.433,90.432v100.28L500,390.57V109.43z"/>
<path fill="#FFFFFF" d="M0.003,499.996h63.945l163.308-163.313l-63.942-63.941L0.003,436.055V499.996z"/>
<path fill="#FFFFFF" d="M390.573,500l-90.431-90.432H199.856L109.429,500H390.573z"/>
<g>
	<rect x="204.783" y="204.783" fill="#FFFFFF" width="90.433" height="90.431"/>
	<polygon fill="#FFFFFF" points="0,0 0,63.945 163.328,227.268 227.435,163.49 63.948,0 	"/>
</g>
<path fill="#FFFFFF" d="M272.742,163.313l63.942,63.946L499.997,63.949V0L436.05,0.002L272.742,163.313z"/>
<path fill="#FFFFFF" d="M300.365,90.43l90.232-90.428H109.43l90.427,90.428H300.365z"/>
<path fill="#FFFFFF" d="M0.003,390.57l90.429-90.426V199.86L0.003,109.426V390.57z"/>
</svg>
